<svg height="512pt" viewBox="0 -16 512 512" width="512pt" xmlns="http://www.w3.org/2000/svg"><path d="m169.917969 200.320312h-15v-15h15zm-25 0h-15v-15h15zm0 0"/><path d="m149.917969 306.394531c27.515625-40.613281 101.785156-155.867187 101.785156-204.609375 0-56.125-45.660156-101.785156-101.785156-101.785156-56.121094 0-101.78125 45.660156-101.78125 101.785156 0 48.742188 74.265625 163.996094 101.78125 204.609375zm-86.78125-204.609375c0-47.855468 38.929687-86.785156 86.78125-86.785156 47.851562 0 86.785156 38.929688 86.785156 86.785156 0 40.863282-64.320313 143.324219-86.785156 177.660156-22.351563-34.164062-86.78125-136.761718-86.78125-177.660156zm0 0"/><path d="m198.28125 101.785156c0-26.667968-21.695312-48.363281-48.363281-48.363281-26.664063 0-48.359375 21.695313-48.359375 48.363281 0 26.664063 21.695312 48.359375 48.359375 48.359375 26.667969 0 48.363281-21.695312 48.363281-48.359375zm-81.722656 0c0-18.398437 14.964844-33.363281 33.359375-33.363281 18.398437 0 33.363281 14.964844 33.363281 33.363281 0 18.394532-14.964844 33.359375-33.363281 33.359375-18.394531 0-33.359375-14.964843-33.359375-33.359375zm0 0"/><path d="m478.480469 145.96875-75.621094 75.621094h-29.359375l-63.175781-64.054688h-60.769531v15h54.496093l63.175781 64.054688h41.847657l69.40625-69.40625 18.519531 18.515625v22.410156l-17.875 17.875v121.085937l-23.441406 23.441407.007812 34.066406 17.269532 17.269531v13.972656l-10.851563 10.851563-38.183594-38.1875h-119.863281l-12.109375 29.238281 12.488281 12.488282-14.234375 14.234374h-17.695312l-55.960938-55.960937h-96.023437l-105.527344-105.527344v-130.421875h35.28125v-15h-50.28125v151.636719l114.3125 114.3125h96.027344l55.957031 55.960937h30.121094l29.234375-29.234374-16.007813-16.011719 4.441407-10.714844h103.625l44.398437 44.398437 25.851563-25.847656v-26.398437l-17.273438-17.273438v-21.640625l23.4375-23.4375v-121.089844l17.875-17.871093v-34.835938zm0 0"/></svg>